<svg width="512" height="512" viewBox="0 0 512 512" fill="none" xmlns="http://www.w3.org/2000/svg">
<g clip-path="url(#clip0_0_1)">
<path d="M395 191.9H27C9.25 191.9 -5 206.2 -5 223.9V415.9C-5 468.9 38 511.9 91 511.9H283C336 511.9 379 468.9 379 415.9H395C456.75 415.9 507 365.65 507 303.9C507 242.15 456.8 191.9 395 191.9ZM395 351.9H379V255.9H395C421.5 255.9 443 277.4 443 303.9C443 330.4 421.5 351.9 395 351.9ZM102.9 100.6C115.3 107 123 121.3 123 135.9C123 149.15 133.75 159.79 147 159.79C160.25 159.79 171 148 171 135.6C171 104.26 154.17 74.96 127.09 59.15C114.7 51.93 107 38.53 107 24.18C107 10.93 96.25 0.04 83 0.04C69.75 0.04 59 10.93 59 24.18C59 55.53 75.83 84.82 102.9 100.6ZM214.9 100.6C227.3 107 235 121.3 235 135.9C235 149.15 245.75 159.76 259 159.76C272.25 159.76 283 148 283 135.6C283 104.26 266.17 74.96 239.09 59.15C226.7 51.93 219 38.53 219 24.18C219 10.93 208.25 0 195 0C181.75 0 171 10.93 171 24.18C171 55.53 187.8 84.82 214.9 100.6Z" fill="#33983D"/>
</g>
<defs>
<clipPath id="clip0_0_1">
<rect width="512" height="512" fill="white"/>
</clipPath>
</defs>
</svg>
